<mxfile host="app.diagrams.net" agent="Mozilla/5.0 (Windows NT 10.0; Win64; x64) AppleWebKit/537.36 (KHTML, like Gecko) Chrome/131.0.0.0 Safari/537.36" version="24.8.6">
  <diagram name="Page-1" id="zKAszAt0wGawJ1GF2vdi">
    <mxGraphModel dx="1179" dy="984" grid="1" gridSize="10" guides="1" tooltips="1" connect="1" arrows="1" fold="1" page="1" pageScale="1" pageWidth="850" pageHeight="1100" math="0" shadow="0">
      <root>
        <mxCell id="0" />
        <mxCell id="1" parent="0" />
        <mxCell id="xpbjgqUAxfzlJa_fM36w-5" value="" style="group" vertex="1" connectable="0" parent="1">
          <mxGeometry x="160" y="480" width="40" height="40" as="geometry" />
        </mxCell>
        <mxCell id="xpbjgqUAxfzlJa_fM36w-1" value="" style="swimlane;startSize=0;" vertex="1" parent="xpbjgqUAxfzlJa_fM36w-5">
          <mxGeometry width="10" height="40" as="geometry" />
        </mxCell>
        <mxCell id="xpbjgqUAxfzlJa_fM36w-2" value="" style="swimlane;startSize=0;" vertex="1" parent="xpbjgqUAxfzlJa_fM36w-5">
          <mxGeometry x="10" width="10" height="40" as="geometry" />
        </mxCell>
        <mxCell id="xpbjgqUAxfzlJa_fM36w-3" value="" style="swimlane;startSize=0;" vertex="1" parent="xpbjgqUAxfzlJa_fM36w-5">
          <mxGeometry x="20" width="10" height="40" as="geometry" />
        </mxCell>
        <mxCell id="xpbjgqUAxfzlJa_fM36w-4" value="" style="swimlane;startSize=0;" vertex="1" parent="xpbjgqUAxfzlJa_fM36w-5">
          <mxGeometry x="30" width="10" height="40" as="geometry" />
        </mxCell>
        <mxCell id="xpbjgqUAxfzlJa_fM36w-19" value="" style="group" vertex="1" connectable="0" parent="1">
          <mxGeometry x="281" y="420" width="40" height="40" as="geometry" />
        </mxCell>
        <mxCell id="xpbjgqUAxfzlJa_fM36w-20" value="" style="swimlane;startSize=0;" vertex="1" parent="xpbjgqUAxfzlJa_fM36w-19">
          <mxGeometry width="10" height="40" as="geometry" />
        </mxCell>
        <mxCell id="xpbjgqUAxfzlJa_fM36w-21" value="" style="swimlane;startSize=0;" vertex="1" parent="xpbjgqUAxfzlJa_fM36w-19">
          <mxGeometry x="10" width="10" height="40" as="geometry" />
        </mxCell>
        <mxCell id="xpbjgqUAxfzlJa_fM36w-22" value="" style="swimlane;startSize=0;" vertex="1" parent="xpbjgqUAxfzlJa_fM36w-19">
          <mxGeometry x="20" width="10" height="40" as="geometry" />
        </mxCell>
        <mxCell id="xpbjgqUAxfzlJa_fM36w-23" value="" style="swimlane;startSize=0;" vertex="1" parent="xpbjgqUAxfzlJa_fM36w-19">
          <mxGeometry x="30" width="10" height="40" as="geometry" />
        </mxCell>
        <mxCell id="xpbjgqUAxfzlJa_fM36w-25" value="" style="group" vertex="1" connectable="0" parent="1">
          <mxGeometry x="280" y="540" width="40" height="40" as="geometry" />
        </mxCell>
        <mxCell id="xpbjgqUAxfzlJa_fM36w-26" value="" style="swimlane;startSize=0;" vertex="1" parent="xpbjgqUAxfzlJa_fM36w-25">
          <mxGeometry width="10" height="40" as="geometry" />
        </mxCell>
        <mxCell id="xpbjgqUAxfzlJa_fM36w-27" value="" style="swimlane;startSize=0;" vertex="1" parent="xpbjgqUAxfzlJa_fM36w-25">
          <mxGeometry x="10" width="10" height="40" as="geometry" />
        </mxCell>
        <mxCell id="xpbjgqUAxfzlJa_fM36w-28" value="" style="swimlane;startSize=0;" vertex="1" parent="xpbjgqUAxfzlJa_fM36w-25">
          <mxGeometry x="20" width="10" height="40" as="geometry" />
        </mxCell>
        <mxCell id="xpbjgqUAxfzlJa_fM36w-29" value="" style="swimlane;startSize=0;" vertex="1" parent="xpbjgqUAxfzlJa_fM36w-25">
          <mxGeometry x="30" width="10" height="40" as="geometry" />
        </mxCell>
        <mxCell id="xpbjgqUAxfzlJa_fM36w-30" value="" style="group" vertex="1" connectable="0" parent="1">
          <mxGeometry x="400" y="480" width="40" height="40" as="geometry" />
        </mxCell>
        <mxCell id="xpbjgqUAxfzlJa_fM36w-31" value="" style="swimlane;startSize=0;" vertex="1" parent="xpbjgqUAxfzlJa_fM36w-30">
          <mxGeometry width="10" height="40" as="geometry" />
        </mxCell>
        <mxCell id="xpbjgqUAxfzlJa_fM36w-32" value="" style="swimlane;startSize=0;" vertex="1" parent="xpbjgqUAxfzlJa_fM36w-30">
          <mxGeometry x="10" width="10" height="40" as="geometry" />
        </mxCell>
        <mxCell id="xpbjgqUAxfzlJa_fM36w-33" value="" style="swimlane;startSize=0;" vertex="1" parent="xpbjgqUAxfzlJa_fM36w-30">
          <mxGeometry x="20" width="10" height="40" as="geometry" />
        </mxCell>
        <mxCell id="xpbjgqUAxfzlJa_fM36w-34" value="" style="swimlane;startSize=0;" vertex="1" parent="xpbjgqUAxfzlJa_fM36w-30">
          <mxGeometry x="30" width="10" height="40" as="geometry" />
        </mxCell>
        <mxCell id="xpbjgqUAxfzlJa_fM36w-35" value="" style="endArrow=classic;html=1;rounded=0;" edge="1" parent="1">
          <mxGeometry relative="1" as="geometry">
            <mxPoint x="370" y="500" as="sourcePoint" />
            <mxPoint x="470" y="500" as="targetPoint" />
          </mxGeometry>
        </mxCell>
        <mxCell id="xpbjgqUAxfzlJa_fM36w-36" value="Label" style="edgeLabel;resizable=0;html=1;;align=center;verticalAlign=middle;" connectable="0" vertex="1" parent="xpbjgqUAxfzlJa_fM36w-35">
          <mxGeometry relative="1" as="geometry" />
        </mxCell>
        <mxCell id="xpbjgqUAxfzlJa_fM36w-37" style="edgeStyle=orthogonalEdgeStyle;rounded=0;orthogonalLoop=1;jettySize=auto;html=1;exitX=1;exitY=0.5;exitDx=0;exitDy=0;entryX=0;entryY=0.5;entryDx=0;entryDy=0;" edge="1" parent="1" source="xpbjgqUAxfzlJa_fM36w-4" target="xpbjgqUAxfzlJa_fM36w-31">
          <mxGeometry relative="1" as="geometry" />
        </mxCell>
        <mxCell id="xpbjgqUAxfzlJa_fM36w-38" style="edgeStyle=orthogonalEdgeStyle;rounded=0;orthogonalLoop=1;jettySize=auto;html=1;exitX=1;exitY=0.5;exitDx=0;exitDy=0;entryX=0;entryY=0.5;entryDx=0;entryDy=0;" edge="1" parent="1" source="xpbjgqUAxfzlJa_fM36w-4" target="xpbjgqUAxfzlJa_fM36w-20">
          <mxGeometry relative="1" as="geometry" />
        </mxCell>
        <mxCell id="xpbjgqUAxfzlJa_fM36w-39" style="edgeStyle=orthogonalEdgeStyle;rounded=0;orthogonalLoop=1;jettySize=auto;html=1;exitX=1;exitY=0.5;exitDx=0;exitDy=0;entryX=0;entryY=0.5;entryDx=0;entryDy=0;" edge="1" parent="1" source="xpbjgqUAxfzlJa_fM36w-4" target="xpbjgqUAxfzlJa_fM36w-26">
          <mxGeometry relative="1" as="geometry" />
        </mxCell>
      </root>
    </mxGraphModel>
  </diagram>
</mxfile>
